<svg width="500" height="500" viewBox="0 0 500 500" fill="none" xmlns="http://www.w3.org/2000/svg">
<rect width="500" height="500" rx="250" fill="#6580D9"/>
<mask id="mask0_239_192" style="mask-type:alpha" maskUnits="userSpaceOnUse" x="0" y="0" width="500" height="500">
<rect width="500" height="500" rx="250" fill="#6580D9"/>
</mask>
<g mask="url(#mask0_239_192)">
<g filter="url(#filter0_d_239_192)">
<path d="M295.417 112.2C340.75 112.2 380.75 114.6 415.417 119.4C422.884 120.467 427.951 122.734 430.617 126.2C433.55 129.667 435.018 134.2 435.018 139.8C435.018 158.2 425.15 166.734 405.417 165.4L391.417 164.2C375.684 162.867 359.95 161.8 344.217 161C328.75 160.2 312.484 159.8 295.417 159.8H277.417C274.217 199.266 270.884 235.267 267.417 267.8L336.217 266.6C346.083 266.6 352.617 268.333 355.817 271.8C359.284 275.266 361.018 279.933 361.018 285.8C361.018 294.866 358.35 302.067 353.017 307.4C347.683 312.467 340.083 315 330.217 315H261.817L259.417 332.2C253.817 376.2 241.817 407.534 223.417 426.2C205.284 444.867 180.217 454.2 148.217 454.2C130.084 454.2 115 451.5 97.5 445C94.7504 443.979 92.0925 442.874 89.5273 441.705C70.1635 425.479 53.2946 406.373 39.5791 385.047C46.2866 390.377 55.2289 394.148 57.5 395.8C60.7 397.933 80.7957 405.957 92.5 409C112.5 414.2 119.567 413.5 138.5 413.5C154 413 170.5 406.5 181 394C192 379.5 200.084 363.667 203.018 337L205.417 315H186.217C180.084 315 174.75 313.266 170.217 309.8C165.95 306.333 163.817 301.4 163.817 295C163.817 286.733 165.95 280.467 170.217 276.2C174.483 271.667 180.751 269.4 189.018 269.4C196.484 269.4 203.818 269.267 211.018 269C214.218 239.667 217.684 204.067 221.417 162.2C192.617 164.867 172.351 169.534 160.617 176.2C148.884 182.867 143.017 192.733 143.017 205.8C143.017 214.866 145.684 223.533 151.018 231.8C152.618 234.2 153.417 236.6 153.417 239C153.417 243.8 150.75 248.066 145.417 251.8C140.084 255.266 134.084 257 127.417 257C120.217 257 114.083 254.866 109.017 250.6C105.817 247.933 102.751 242.466 99.8174 234.2C96.884 225.934 95.417 216.733 95.417 206.6C95.4171 173.533 112.35 149.533 146.217 134.6C180.35 119.666 230.084 112.2 295.417 112.2Z" fill="white"/>
</g>
</g>
<defs>
<filter id="filter0_d_239_192" x="12.5791" y="87.2002" width="455.438" height="402" filterUnits="userSpaceOnUse" color-interpolation-filters="sRGB">
<feFlood flood-opacity="0" result="BackgroundImageFix"/>
<feColorMatrix in="SourceAlpha" type="matrix" values="0 0 0 0 0 0 0 0 0 0 0 0 0 0 0 0 0 0 127 0" result="hardAlpha"/>
<feOffset dx="3" dy="5"/>
<feGaussianBlur stdDeviation="15"/>
<feComposite in2="hardAlpha" operator="out"/>
<feColorMatrix type="matrix" values="0 0 0 0 0.134731 0 0 0 0 0.204688 0 0 0 0 0.322115 0 0 0 1 0"/>
<feBlend mode="normal" in2="BackgroundImageFix" result="effect1_dropShadow_239_192"/>
<feBlend mode="normal" in="SourceGraphic" in2="effect1_dropShadow_239_192" result="shape"/>
</filter>
</defs>
</svg>
