<svg width="500" height="500" viewBox="0 0 500 500" fill="none" xmlns="http://www.w3.org/2000/svg">
<rect x="2.5" y="2.5" width="495" height="495" rx="247.5" fill="#6580D9" stroke="#435998" stroke-width="5"/>
<mask id="mask0_243_192" style="mask-type:alpha" maskUnits="userSpaceOnUse" x="0" y="0" width="500" height="500">
<rect width="500" height="500" rx="250" fill="#6580D9"/>
</mask>
<g mask="url(#mask0_243_192)">
<path d="M318.218 149H395.426L431.8 128L607.455 432.244L405.655 548.753L373.935 493.812L283.019 546.302V771.311H50V420H205.613L104 244L133 227.257V149H268.545L305.8 127.491L318.218 149Z" fill="#435998"/>
<mask id="path-4-inside-1_243_192" fill="white">
<path d="M295.417 112.2C340.75 112.2 380.75 114.6 415.417 119.4C422.884 120.467 427.951 122.734 430.617 126.2C433.55 129.667 435.018 134.2 435.018 139.8C435.018 158.2 425.15 166.734 405.417 165.4L391.417 164.2C375.684 162.867 359.95 161.8 344.217 161C328.75 160.2 312.484 159.8 295.417 159.8H277.417C274.217 199.266 270.884 235.267 267.417 267.8L336.217 266.6C346.083 266.6 352.617 268.333 355.817 271.8C359.284 275.266 361.018 279.933 361.018 285.8C361.018 294.866 358.35 302.067 353.017 307.4C347.683 312.467 340.083 315 330.217 315H261.817L259.417 332.2C253.817 376.2 241.817 407.534 223.417 426.2C205.284 444.867 180.217 454.2 148.217 454.2C130.084 454.2 115 451.5 97.5 445C94.7504 443.979 92.0925 442.874 89.5273 441.705C70.1635 425.479 53.2946 406.373 39.5791 385.047C46.2866 390.377 55.2289 394.148 57.5 395.8C60.7 397.933 80.7957 405.957 92.5 409C112.5 414.2 119.567 413.5 138.5 413.5C154 413 170.5 406.5 181 394C192 379.5 200.084 363.667 203.018 337L205.417 315H186.217C180.084 315 174.75 313.266 170.217 309.8C165.95 306.333 163.817 301.4 163.817 295C163.817 286.733 165.95 280.467 170.217 276.2C174.483 271.667 180.751 269.4 189.018 269.4C196.484 269.4 203.818 269.267 211.018 269C214.218 239.667 217.684 204.067 221.417 162.2C192.617 164.867 172.351 169.534 160.617 176.2C148.884 182.867 143.017 192.733 143.017 205.8C143.017 214.866 145.684 223.533 151.018 231.8C152.618 234.2 153.417 236.6 153.417 239C153.417 243.8 150.75 248.066 145.417 251.8C140.084 255.266 134.084 257 127.417 257C120.217 257 114.083 254.866 109.017 250.6C105.817 247.933 102.751 242.466 99.8174 234.2C96.884 225.934 95.417 216.733 95.417 206.6C95.4171 173.533 112.35 149.533 146.217 134.6C180.35 119.666 230.084 112.2 295.417 112.2Z"/>
</mask>
<path d="M295.417 112.2C340.75 112.2 380.75 114.6 415.417 119.4C422.884 120.467 427.951 122.734 430.617 126.2C433.55 129.667 435.018 134.2 435.018 139.8C435.018 158.2 425.15 166.734 405.417 165.4L391.417 164.2C375.684 162.867 359.95 161.8 344.217 161C328.75 160.2 312.484 159.8 295.417 159.8H277.417C274.217 199.266 270.884 235.267 267.417 267.8L336.217 266.6C346.083 266.6 352.617 268.333 355.817 271.8C359.284 275.266 361.018 279.933 361.018 285.8C361.018 294.866 358.35 302.067 353.017 307.4C347.683 312.467 340.083 315 330.217 315H261.817L259.417 332.2C253.817 376.2 241.817 407.534 223.417 426.2C205.284 444.867 180.217 454.2 148.217 454.2C130.084 454.2 115 451.5 97.5 445C94.7504 443.979 92.0925 442.874 89.5273 441.705C70.1635 425.479 53.2946 406.373 39.5791 385.047C46.2866 390.377 55.2289 394.148 57.5 395.8C60.7 397.933 80.7957 405.957 92.5 409C112.5 414.2 119.567 413.5 138.5 413.5C154 413 170.5 406.5 181 394C192 379.5 200.084 363.667 203.018 337L205.417 315H186.217C180.084 315 174.75 313.266 170.217 309.8C165.95 306.333 163.817 301.4 163.817 295C163.817 286.733 165.95 280.467 170.217 276.2C174.483 271.667 180.751 269.4 189.018 269.4C196.484 269.4 203.818 269.267 211.018 269C214.218 239.667 217.684 204.067 221.417 162.2C192.617 164.867 172.351 169.534 160.617 176.2C148.884 182.867 143.017 192.733 143.017 205.8C143.017 214.866 145.684 223.533 151.018 231.8C152.618 234.2 153.417 236.6 153.417 239C153.417 243.8 150.75 248.066 145.417 251.8C140.084 255.266 134.084 257 127.417 257C120.217 257 114.083 254.866 109.017 250.6C105.817 247.933 102.751 242.466 99.8174 234.2C96.884 225.934 95.417 216.733 95.417 206.6C95.4171 173.533 112.35 149.533 146.217 134.6C180.35 119.666 230.084 112.2 295.417 112.2Z" fill="white"/>
<path d="M415.417 119.4L416.124 114.451L416.113 114.449L416.103 114.448L415.417 119.4ZM430.617 126.2L426.654 129.249L426.725 129.341L426.8 129.43L430.617 126.2ZM435.018 139.8L440.018 139.8L440.018 139.8L435.018 139.8ZM405.417 165.4L404.99 170.382L405.035 170.386L405.08 170.389L405.417 165.4ZM391.417 164.2L391.844 159.218L391.839 159.218L391.417 164.2ZM344.217 161L343.959 165.993L343.963 165.994L344.217 161ZM277.417 159.8V154.8H272.806L272.433 159.396L277.417 159.8ZM267.417 267.8L262.445 267.27L261.845 272.898L267.504 272.799L267.417 267.8ZM336.217 266.6V261.6H336.173L336.13 261.6L336.217 266.6ZM355.817 271.8L352.143 275.191L352.211 275.265L352.282 275.335L355.817 271.8ZM361.018 285.8L366.018 285.8L366.018 285.8L361.018 285.8ZM353.017 307.4L356.46 311.025L356.507 310.981L356.552 310.936L353.017 307.4ZM261.817 315V310H257.467L256.865 314.309L261.817 315ZM259.417 332.2L254.465 331.509L254.461 331.539L254.457 331.569L259.417 332.2ZM223.417 426.2L219.856 422.69L219.843 422.703L219.831 422.716L223.417 426.2ZM148.217 454.2L148.217 459.2H148.217V454.2ZM97.5 445L99.2409 440.313L99.2409 440.313L97.5 445ZM89.5273 441.705L86.3159 445.537L86.8366 445.974L87.4547 446.255L89.5273 441.705ZM39.5791 385.047L42.6898 381.132L35.3737 387.751L39.5791 385.047ZM57.5 395.8L54.5592 399.844L54.6417 399.904L54.7265 399.96L57.5 395.8ZM92.5 409L93.7582 404.161L92.5 409ZM138.5 413.5V418.5H138.581L138.661 418.497L138.5 413.5ZM181 394L184.829 397.216L184.908 397.121L184.983 397.022L181 394ZM203.018 337L207.988 337.547L207.988 337.542L203.018 337ZM205.417 315L210.388 315.542L210.992 310H205.417V315ZM186.217 315L186.217 320H186.217V315ZM170.217 309.8L167.064 313.68L167.121 313.727L167.18 313.772L170.217 309.8ZM163.817 295L158.817 295L158.817 295L163.817 295ZM170.217 276.2L173.752 279.736L173.806 279.682L173.858 279.627L170.217 276.2ZM189.018 269.4L189.018 274.4L189.018 274.4L189.018 269.4ZM211.018 269L211.203 273.997L215.52 273.837L215.988 269.542L211.018 269ZM221.417 162.2L226.397 162.644L226.93 156.668L220.956 157.221L221.417 162.2ZM160.617 176.2L158.147 171.853L158.147 171.853L160.617 176.2ZM143.017 205.8L138.017 205.8V205.8H143.017ZM151.018 231.8L146.816 234.51L146.836 234.542L146.857 234.573L151.018 231.8ZM153.417 239L158.417 239V239H153.417ZM145.417 251.8L148.142 255.992L148.214 255.945L148.284 255.896L145.417 251.8ZM127.417 257L127.417 262H127.417V257ZM109.017 250.6L112.237 246.775L112.228 246.767L112.218 246.759L109.017 250.6ZM99.8174 234.2L95.1052 235.872L95.1052 235.872L99.8174 234.2ZM95.417 206.6L90.417 206.6V206.6H95.417ZM146.217 134.6L144.213 130.019L144.206 130.022L144.199 130.025L146.217 134.6ZM295.417 112.2V117.2C340.584 117.2 380.347 119.592 414.731 124.353L415.417 119.4L416.103 114.448C381.154 109.609 340.917 107.2 295.417 107.2V112.2ZM415.417 119.4L414.71 124.35C421.753 125.356 425.193 127.349 426.654 129.249L430.617 126.2L434.58 123.152C430.708 118.118 424.014 115.578 416.124 114.451L415.417 119.4ZM430.617 126.2L426.8 129.43C428.804 131.798 430.018 135.098 430.018 139.8L435.018 139.8L440.018 139.8C440.018 133.302 438.297 127.536 434.434 122.971L430.617 126.2ZM435.018 139.8H430.018C430.018 148.165 427.788 153.242 424.347 156.218C420.821 159.267 414.973 161.035 405.754 160.412L405.417 165.4L405.08 170.389C415.595 171.099 424.546 169.267 430.888 163.782C437.313 158.225 440.018 149.834 440.018 139.8H435.018ZM405.417 165.4L405.844 160.419L391.844 159.218L391.417 164.2L390.99 169.182L404.99 170.382L405.417 165.4ZM391.417 164.2L391.839 159.218C376.05 157.88 360.26 156.809 344.471 156.006L344.217 161L343.963 165.994C359.64 166.791 375.317 167.854 390.995 169.182L391.417 164.2ZM344.217 161L344.475 156.007C328.914 155.202 312.561 154.8 295.417 154.8V159.8V164.8C312.406 164.8 328.586 165.198 343.959 165.993L344.217 161ZM295.417 159.8V154.8H277.417V159.8V164.8H295.417V159.8ZM277.417 159.8L272.433 159.396C269.236 198.829 265.907 234.786 262.445 267.27L267.417 267.8L272.389 268.33C275.861 235.747 279.198 199.704 282.401 160.204L277.417 159.8ZM267.417 267.8L267.504 272.799L336.304 271.599L336.217 266.6L336.13 261.6L267.33 262.801L267.417 267.8ZM336.217 266.6V271.6C340.896 271.6 344.53 272.015 347.235 272.733C349.961 273.456 351.409 274.396 352.143 275.191L355.817 271.8L359.491 268.408C357.025 265.737 353.607 264.077 349.799 263.067C345.971 262.051 341.404 261.6 336.217 261.6V266.6ZM355.817 271.8L352.282 275.335C354.63 277.684 356.018 280.98 356.018 285.8L361.018 285.8L366.018 285.8C366.018 278.886 363.938 272.849 359.353 268.264L355.817 271.8ZM361.018 285.8H356.018C356.018 293.827 353.692 299.654 349.481 303.865L353.017 307.4L356.552 310.936C363.008 304.48 366.018 295.906 366.018 285.8H361.018ZM353.017 307.4L349.573 303.775C345.449 307.693 339.249 310 330.217 310V315V320C340.917 320 349.917 317.241 356.46 311.025L353.017 307.4ZM330.217 315V310H261.817V315V320H330.217V315ZM261.817 315L256.865 314.309L254.465 331.509L259.417 332.2L264.369 332.891L266.769 315.691L261.817 315ZM259.417 332.2L254.457 331.569C248.909 375.163 237.114 405.182 219.856 422.69L223.417 426.2L226.978 429.71C246.52 409.885 258.725 377.237 264.377 332.831L259.417 332.2ZM223.417 426.2L219.831 422.716C202.847 440.199 179.197 449.2 148.217 449.2V454.2V459.2C181.237 459.2 207.72 449.534 227.003 429.684L223.417 426.2ZM148.217 454.2L148.217 449.2C130.685 449.2 116.191 446.609 99.2409 440.313L97.5 445L95.7591 449.687C113.809 456.391 129.482 459.2 148.217 459.2L148.217 454.2ZM97.5 445L99.2409 440.313C96.6092 439.335 94.0618 438.276 91.6 437.155L89.5273 441.705L87.4547 446.255C90.1231 447.471 92.8917 448.622 95.7591 449.687L97.5 445ZM89.5273 441.705L92.7387 437.873C73.7596 421.969 57.2263 403.243 43.7845 382.342L39.5791 385.047L35.3737 387.751C49.3629 409.503 66.5674 428.989 86.3159 445.537L89.5273 441.705ZM39.5791 385.047L36.4684 388.961C40.1738 391.906 44.3976 394.348 47.8252 396.201C49.5185 397.117 51.1602 397.963 52.3437 398.59C53.6879 399.303 54.334 399.68 54.5592 399.844L57.5 395.8L60.4408 391.756C59.5305 391.094 58.2071 390.38 57.0263 389.755C55.6848 389.044 54.2458 388.304 52.5812 387.405C49.293 385.627 45.6919 383.518 42.6898 381.132L39.5791 385.047ZM57.5 395.8L54.7265 399.96C55.9582 400.781 58.2338 401.851 60.6708 402.916C63.2703 404.052 66.5185 405.378 70.0136 406.725C76.9648 409.402 85.119 412.247 91.2418 413.839L92.5 409L93.7582 404.161C88.1767 402.71 80.431 400.021 73.6083 397.393C70.2164 396.086 67.1091 394.816 64.6749 393.753C63.456 393.22 62.4321 392.751 61.6385 392.363C61.2421 392.169 60.9222 392.005 60.6754 391.871C60.553 391.805 60.4573 391.75 60.3852 391.708C60.3497 391.687 60.3226 391.67 60.3029 391.658C60.2932 391.652 60.2859 391.648 60.2809 391.644C60.2758 391.641 60.2734 391.639 60.2735 391.64L57.5 395.8ZM92.5 409L91.2418 413.839C111.936 419.22 119.598 418.5 138.5 418.5V413.5V408.5C119.536 408.5 113.064 409.18 93.7582 404.161L92.5 409ZM138.5 413.5L138.661 418.497C155.299 417.961 173.248 411.003 184.829 397.216L181 394L177.171 390.784C167.752 401.997 152.701 408.039 138.339 408.503L138.5 413.5ZM181 394L184.983 397.022C196.476 381.873 204.946 365.197 207.988 337.547L203.018 337L198.048 336.453C195.222 362.136 187.524 377.127 177.017 390.978L181 394ZM203.018 337L207.988 337.542L210.388 315.542L205.417 315L200.446 314.458L198.047 336.458L203.018 337ZM205.417 315V310H186.217V315V320H205.417V315ZM186.217 315L186.217 310C181.094 310 176.848 308.577 173.254 305.828L170.217 309.8L167.18 313.772C172.652 317.956 179.073 320 186.217 320L186.217 315ZM170.217 309.8L173.37 305.919C170.471 303.564 168.817 300.171 168.817 295L163.817 295L158.817 295C158.817 302.629 161.43 309.102 167.064 313.68L170.217 309.8ZM163.817 295H168.817C168.817 287.557 170.727 282.761 173.752 279.736L170.217 276.2L166.681 272.665C161.173 278.173 158.817 285.91 158.817 295H163.817ZM170.217 276.2L173.858 279.627C176.898 276.396 181.657 274.4 189.018 274.4V269.4V264.4C179.845 264.4 172.069 266.937 166.576 272.773L170.217 276.2ZM189.018 269.4L189.018 274.4C196.544 274.4 203.939 274.266 211.203 273.997L211.018 269L210.833 264.003C203.696 264.268 196.424 264.4 189.018 264.4L189.018 269.4ZM211.018 269L215.988 269.542C219.193 240.166 222.662 204.531 226.397 162.644L221.417 162.2L216.437 161.756C212.705 203.602 209.242 239.168 206.047 268.458L211.018 269ZM221.417 162.2L220.956 157.221C192.076 159.896 170.877 164.62 158.147 171.853L160.617 176.2L163.087 180.547C173.824 174.447 193.158 169.838 221.878 167.179L221.417 162.2ZM160.617 176.2L158.147 171.853C144.914 179.372 138.017 190.863 138.017 205.8L143.017 205.8L148.017 205.8C148.017 194.604 152.854 186.362 163.087 180.547L160.617 176.2ZM143.017 205.8H138.017C138.017 215.91 141.008 225.508 146.816 234.51L151.018 231.8L155.219 229.089C150.361 221.559 148.017 213.823 148.017 205.8H143.017ZM151.018 231.8L146.857 234.573C148.021 236.319 148.417 237.771 148.417 239H153.417H158.417C158.417 235.429 157.214 232.08 155.178 229.026L151.018 231.8ZM153.417 239L148.417 239C148.417 241.623 147.066 244.542 142.55 247.704L145.417 251.8L148.284 255.896C154.434 251.591 158.417 245.977 158.417 239L153.417 239ZM145.417 251.8L142.692 247.608C138.21 250.521 133.165 252 127.417 252V257V262C135.002 262 141.958 260.012 148.142 255.992L145.417 251.8ZM127.417 257L127.417 252C121.285 252 116.322 250.215 112.237 246.775L109.017 250.6L105.796 254.424C111.845 259.518 119.149 262 127.417 262L127.417 257ZM109.017 250.6L112.218 246.759C110.131 245.02 107.427 240.694 104.53 232.528L99.8174 234.2L95.1052 235.872C98.074 244.239 101.502 250.846 105.815 254.441L109.017 250.6ZM99.8174 234.2L104.53 232.528C101.814 224.874 100.417 216.25 100.417 206.6H95.417H90.417C90.417 217.216 91.9544 226.993 95.1052 235.872L99.8174 234.2ZM95.417 206.6L100.417 206.6C100.417 190.963 104.404 177.735 112.202 166.682C120.026 155.593 131.917 146.369 148.234 139.175L146.217 134.6L144.199 130.025C126.65 137.763 113.141 148.006 104.032 160.917C94.8964 173.865 90.4171 189.169 90.417 206.6L95.417 206.6ZM146.217 134.6L148.221 139.18C181.414 124.658 230.331 117.2 295.417 117.2V112.2V107.2C229.836 107.2 179.286 114.674 144.213 130.019L146.217 134.6Z" fill="#435998" mask="url(#path-4-inside-1_243_192)"/>
</g>
</svg>
